<?xml version="1.0"?>
<svg width="512" height="512" xmlns="http://www.w3.org/2000/svg" xmlns:svg="http://www.w3.org/2000/svg">
 <!-- Created with SVG-edit - https://github.com/SVG-Edit/svgedit-->
 <g class="layer">
  <title>Layer 1</title>
  <g id="svg_22" transform="matrix(1 0 0 1 0 0)">
   <g id="svg_23">
    <path d="m320.73,48.91l38.36,-25.27c0,0 33.45,-4.73 33.45,-4.73c0,0 45.45,12.73 44.73,12c-0.73,-0.73 26.18,15.27 26.18,16.18c0,0.91 25.45,35.45 24.73,34.73c-0.73,-0.73 8,48 7.27,47.27c-0.73,-0.73 -10.18,42.55 -10.91,41.82c-0.73,-0.73 -21.09,29.82 -21.82,29.09c-0.73,-0.73 -3.82,15.27 -3.82,15.27c0,0 -14.55,7.27 -15.27,6.55c-0.73,-0.73 -12,1.64 -12.73,0.91c-0.73,-0.73 -55.64,10.73 -56.36,10c-0.73,-0.73 -28.36,13.45 -29.09,12.73c-0.73,-0.73 -62.91,54.36 -63.64,53.64c-0.73,-0.73 -202,181.64 -202.73,180.91c-0.73,-0.73 -9.27,0.73 -10,0c-0.73,-0.73 -11.09,12.55 -11.82,11.82c-0.73,-0.73 -23.82,-6.55 -24.55,-7.27c-0.73,-0.73 -13.82,-18.36 -14.55,-19.09c-0.73,-0.73 -4.73,-13.82 -5.45,-14.55c-0.73,-0.73 14.36,-12.91 13.64,-13.64c-0.73,-0.73 2.55,-8.36 1.82,-9.09c-0.73,-0.73 233.45,-246.55 232.73,-247.27c-0.73,-0.73 16.18,-23.82 15.45,-24.55c-0.73,-0.73 8.91,-22 8.18,-22.73c-0.73,-0.73 6.18,-37.45 5.45,-38.18c-0.73,-0.73 4.36,-12.91 3.64,-13.64c-0.73,-0.73 5.27,-12.91 4.55,-13.64c-0.73,-0.73 8.91,-10.18 8.18,-10.91c-0.73,-0.73 14.36,-8.36 14.36,-8.36z" fill="#ffffff" id="svg_5" stroke="#e4e724" stroke-dasharray="null" stroke-linecap="null" stroke-linejoin="null" stroke-opacity="null"/>
    <path d="m321.64,54.36l23.82,9.27l30.91,21.82c0,0 20.73,18 20.73,18c0,0 22.73,22.73 22.73,23.64c0,0.91 19.09,23.64 18.36,22.91c-0.73,-0.73 15.27,22.55 14.55,21.82c-0.73,-0.73 9.82,26.18 9.09,25.45c-0.73,-0.73 14.36,-8.36 13.64,-9.09c-0.73,-0.73 13.45,-26.55 12.73,-27.27c-0.73,-0.73 8.91,-28.36 8.18,-29.09c-0.73,-0.73 1.64,-18.36 0.91,-19.09c-0.73,-0.73 -4.73,-23.82 -5.45,-24.55c-0.73,-0.73 -9.27,-15.64 -10,-16.36c-0.73,-0.73 -12,-18.36 -12.73,-19.09c-0.73,-0.73 -16.55,-12.91 -17.27,-13.64c-0.73,-0.73 -22,-12.91 -22.73,-13.64c-0.73,-0.73 -28.36,-5.64 -29.09,-6.36c-0.73,-0.73 -30.18,3.45 -30.91,2.73c-0.73,-0.73 -24.73,9.82 -25.45,9.09c-0.73,-0.73 -22,23.45 -22,23.45z" fill="#cbd9ed" id="svg_8" stroke="#e4e724" stroke-dasharray="null" stroke-linecap="null" stroke-linejoin="null" stroke-opacity="null"/>
    <path d="m295.27,80.73c0,0.91 -8.18,29.09 -8.18,29.09c0,0 0,22.73 -0.73,22c-0.73,-0.73 18.91,8.91 18.18,8.18c-0.73,-0.73 29.82,24.36 29.09,23.64c-0.73,-0.73 35.27,36.18 34.55,35.45c-0.73,-0.73 17.09,33.45 17.09,33.45c0,0 46.36,-8.18 45.64,-8.91c-0.73,-0.73 5.27,-13.82 4.55,-14.55c-0.73,-0.73 -3.82,-14.73 -4.55,-15.45c-0.73,-0.73 -52,-66.55 -52.73,-67.27c-0.73,-0.73 -40.18,-31.09 -40.18,-32c0,-0.91 -30,-15.45 -30.73,-16.18c-0.73,-0.73 -15.64,14.36 -16.36,13.64c-0.73,-0.73 4.36,-11.09 4.36,-11.09z" fill="#ebdcef" id="svg_4" stroke="#e4e724" stroke-dasharray="null" stroke-linecap="null" stroke-linejoin="null" stroke-opacity="null"/>
    <path d="m319.82,52.55l41.09,21.09l73.64,71.82l24.55,41.82l1.82,16.36l-8.18,13.64l-24.55,6.36l7.27,-16.36l-30,-51.82l-77.27,-69.09l-21.82,-9.09l-12.73,3.64l9.09,-20l17.09,-8.36z" fill="#f2f3f4" id="svg_3" stroke="#e4e724" stroke-dasharray="null" stroke-linecap="null" stroke-linejoin="null" stroke-opacity="null"/>
    <path d="m274.36,161.64c0,0 22.73,16.36 22.73,16.36c0,0 27.27,25.45 26.55,24.73c-0.73,-0.73 21.64,27.09 21.64,27.09c0,0 6.36,12.73 5.64,12c-0.73,-0.73 34.36,-10.18 33.64,-10.91c-0.73,-0.73 -10.18,-25.64 -10.91,-26.36c-0.73,-0.73 -50.18,-51.09 -50.91,-51.82c-0.73,-0.73 -36.55,-23.82 -37.27,-24.55c-0.73,-0.73 -11.09,33.45 -11.09,33.45z" fill="#d5b9e8" id="svg_2" stroke="#e4e724" stroke-dasharray="null" stroke-linecap="null" stroke-linejoin="null" stroke-opacity="null"/>
    <path d="m27.63,435.69l-10.91,12c-6.09,8.18 9.38,28.55 11.81,30.55c2.17,2.61 17.22,17.62 30.85,13.42l5.96,-5.19l5.96,-5.19" fill="#ffffff" id="svg_14" stroke="#e4e724" stroke-dasharray="null" stroke-linecap="null" stroke-linejoin="null" stroke-opacity="null" stroke-width="8"/>
    <path d="m322.6,263.91c24.05,-21.59 46.98,-28.93 61.3,-31.78c15.3,-1.1 34.28,-4.38 45.4,-8.32c9.82,2.36 20.03,-2.83 22.13,-4.8c2.1,-1.63 10.48,-7.03 10.68,-15.91c106.9,-118.15 -56.52,-247.04 -144.04,-149.56c-5.02,-0.46 -9.36,2.38 -12.19,4.35c-3.14,2.67 -12.48,10.99 -11.27,28.19c-4.97,13.64 -8,28.25 -9.08,42.38c-1.2,12.07 -1.68,16.37 -11.86,33.54c-4.07,6.08 -9.35,14.58 -20.7,27.46c-74.92,79.47 -149.83,159.43 -224.75,238.9c-4.44,9.95 11.84,32.77 13.75,34.37c1.51,2.03 24.2,21.39 36.81,17.78l243.82,-216.6z" fill="none" id="svg_7" stroke="#e4e724" stroke-dasharray="null" stroke-linecap="null" stroke-linejoin="null" stroke-width="8" transform="matrix(1 0 0 1 0 0)"/>
    <path d="m318.26,53.49c19.37,-0.12 54.66,28.74 85,56.1c33.92,32.99 62.11,78.72 58.8,92.99" fill="none" id="svg_16" stroke="#e4e724" stroke-dasharray="null" stroke-linecap="null" stroke-linejoin="null" stroke-opacity="null" stroke-width="8"/>
    <path d="m294.91,85.14c6.3,-10.95 15.65,-7.71 19.61,-5.59c22.32,7.89 60.27,44.44 66.22,50.33c6.46,6.13 44.23,47.93 54.12,71.35c2.62,5.96 5.17,15.55 -5.21,21.9" fill="none" fill-opacity="null" id="svg_17" stroke="#e4e724" stroke-dasharray="null" stroke-linecap="null" stroke-linejoin="null" stroke-opacity="null" stroke-width="8"/>
    <path d="m285.32,129.03c13.4,-0.08 36.31,22.31 57.3,41.16c23.47,22.72 44.48,51.69 42.2,61.52" fill="none" fill-opacity="null" id="svg_18" stroke="#e4e724" stroke-dasharray="null" stroke-linecap="null" stroke-linejoin="null" stroke-opacity="null" stroke-width="8"/>
    <path d="m273.47,162.08c10.05,1.45 26.57,19 43.1,33.77c18.48,17.81 35.28,40.01 35.24,46.7" fill="none" fill-opacity="null" id="svg_19" stroke="#e4e724" stroke-dasharray="null" stroke-linecap="null" stroke-linejoin="null" stroke-opacity="null" stroke-width="8" transform="matrix(1 0 0 1 0 0)"/>
    <ellipse cx="285.85" cy="229.71" fill="#e4e724" id="svg_20" rx="15.44" ry="15.44" stroke="#e4e724" stroke-dasharray="null" stroke-linecap="null" stroke-linejoin="null" stroke-width="8"/>
    <path d="m216.69,220.91c9.86,13.67 30.33,32.8 37.3,40.03c6.32,6.48 26.79,28.4 39.23,36.81l-46.14,40.68c-7.23,-3.53 -34.73,-30.22 -39.07,-34.4c-4.87,-5.04 -28.4,-29.05 -33.92,-37.62l42.61,-45.5l-0.01,0z" fill="#e4e724" id="svg_21" stroke="#e4e724" stroke-dasharray="null" stroke-linecap="round" stroke-linejoin="round" stroke-width="8"/>
   </g>
  </g>
 </g>
</svg>