<?xml version="1.0"?>
<svg width="512" height="512" xmlns="http://www.w3.org/2000/svg" xmlns:svg="http://www.w3.org/2000/svg">
 <!-- Created with SVG-edit - https://github.com/SVG-Edit/svgedit-->
 <g class="layer">
  <title>Layer 1</title>
  <g id="svg_22" transform="matrix(1 0 0 1 0 0)">
   <g id="svg_23" transform="matrix(1 0 0 1 0 0)">
    <path d="m27.63,435.69l-10.91,12c-6.09,8.18 9.38,28.55 11.81,30.55c2.17,2.61 17.22,17.62 30.85,13.42l5.96,-5.19l5.96,-5.19" fill="#ffffff" fill-opacity="null" id="svg_14" stroke="#e4e724" stroke-dasharray="null" stroke-linecap="null" stroke-linejoin="null" stroke-opacity="null" stroke-width="8"/>
    <path d="m322.6,263.91c24.05,-21.59 46.98,-28.93 61.3,-31.78c15.3,-1.1 34.28,-4.38 45.4,-8.32c9.82,2.36 20.03,-2.83 22.13,-4.8c2.1,-1.63 10.48,-7.03 10.68,-15.91c106.9,-118.15 -56.52,-247.04 -144.04,-149.56c-5.02,-0.46 -9.36,2.38 -12.19,4.35c-3.14,2.67 -12.48,10.99 -11.27,28.19c-4.97,13.64 -8,28.25 -9.08,42.38c-1.2,12.07 -1.68,16.37 -11.86,33.54c-4.07,6.08 -9.35,14.58 -20.7,27.46c-74.92,79.47 -149.83,159.43 -224.75,238.9c-4.44,9.95 11.84,32.77 13.75,34.37c1.51,2.03 24.2,21.39 36.81,17.78l243.82,-216.6z" fill="#ffffff" id="svg_7" stroke="#e4e724" stroke-dasharray="null" stroke-linecap="null" stroke-linejoin="null" stroke-width="8"/>
    <path d="m318.26,53.49c19.37,-0.12 54.66,28.74 85,56.1c33.92,32.99 62.11,78.72 58.8,92.99" fill="#ffffff" fill-opacity="null" id="svg_16" stroke="#e4e724" stroke-dasharray="null" stroke-linecap="null" stroke-linejoin="null" stroke-opacity="null" stroke-width="8" transform="matrix(1 0 0 1 0 0)"/>
    <path d="m294.91,85.14c6.3,-10.95 15.65,-7.71 19.61,-5.59c22.32,7.89 60.27,44.44 66.22,50.33c6.46,6.13 44.23,47.93 54.12,71.35c2.62,5.96 5.17,15.55 -5.21,21.9" fill="#ffffff" fill-opacity="null" id="svg_17" stroke="#e4e724" stroke-dasharray="null" stroke-linecap="null" stroke-linejoin="null" stroke-opacity="null" stroke-width="8" transform="matrix(1 0 0 1 0 0)"/>
    <path d="m285.32,129.03c13.4,-0.08 36.31,22.31 57.3,41.16c23.47,22.72 44.48,51.69 42.2,61.52" fill="#ffffff" fill-opacity="null" id="svg_18" stroke="#e4e724" stroke-dasharray="null" stroke-linecap="null" stroke-linejoin="null" stroke-opacity="null" stroke-width="8" transform="matrix(1 0 0 1 0 0)"/>
    <path d="m273.47,162.08c10.05,1.45 26.57,19 43.1,33.77c18.48,17.81 35.28,40.01 35.24,46.7" fill="#ffffff" fill-opacity="null" id="svg_19" stroke="#e4e724" stroke-dasharray="null" stroke-linecap="null" stroke-linejoin="null" stroke-opacity="null" stroke-width="8" transform="matrix(1 0 0 1 0 0)"/>
    <ellipse cx="285.85" cy="229.71" fill="#ffffff" fill-opacity="null" id="svg_20" rx="15.44" ry="15.44" stroke="#e4e724" stroke-dasharray="null" stroke-linecap="null" stroke-linejoin="null" stroke-width="8"/>
    <path d="m216.69,220.91c9.86,13.67 30.33,32.8 37.3,40.03c6.32,6.48 26.79,28.4 39.23,36.81l-46.14,40.68c-7.23,-3.53 -34.73,-30.22 -39.07,-34.4c-4.87,-5.04 -28.4,-29.05 -33.92,-37.62l42.61,-45.5l-0.01,0z" fill="#e4e724" id="svg_21" stroke="#e4e724" stroke-dasharray="null" stroke-linecap="round" stroke-linejoin="round" stroke-width="8"/>
   </g>
  </g>
 </g>
</svg>